<?xml version="1.0" encoding="UTF-8" standalone="no"?>
<!-- Created with Inkscape (http://www.inkscape.org/) -->

<svg
   xmlns:dc="http://purl.org/dc/elements/1.1/"
   xmlns:cc="http://creativecommons.org/ns#"
   xmlns:rdf="http://www.w3.org/1999/02/22-rdf-syntax-ns#"
   xmlns:svg="http://www.w3.org/2000/svg"
   xmlns="http://www.w3.org/2000/svg"
   xmlns:sodipodi="http://sodipodi.sourceforge.net/DTD/sodipodi-0.dtd"
   xmlns:inkscape="http://www.inkscape.org/namespaces/inkscape"
   width="52.073627mm"
   height="52.030418mm"
   viewBox="0 0 52.073627 52.030417"
   version="1.1"
   id="svg8"
   inkscape:version="0.92.2 (5c3e80d, 2017-08-06)"
   sodipodi:docname="clojure-atom-logo.svg"
   inkscape:export-filename="/home/jr0cket/projects/practicalli/atom-protorepl-content/images/clojure-atom-logo.png"
   inkscape:export-xdpi="90"
   inkscape:export-ydpi="90">
  <defs
     id="defs2" />
  <sodipodi:namedview
     id="base"
     pagecolor="#ffffff"
     bordercolor="#666666"
     borderopacity="1.0"
     inkscape:pageopacity="0.0"
     inkscape:pageshadow="2"
     inkscape:zoom="0.98994949"
     inkscape:cx="-154.44338"
     inkscape:cy="-375.78552"
     inkscape:document-units="mm"
     inkscape:current-layer="layer1"
     showgrid="false"
     inkscape:window-width="2560"
     inkscape:window-height="1413"
     inkscape:window-x="0"
     inkscape:window-y="27"
     inkscape:window-maximized="1"
     fit-margin-top="4"
     fit-margin-left="4"
     fit-margin-right="4"
     fit-margin-bottom="4" />
  <metadata
     id="metadata5">
    <rdf:RDF>
      <cc:Work
         rdf:about="">
        <dc:format>image/svg+xml</dc:format>
        <dc:type
           rdf:resource="http://purl.org/dc/dcmitype/StillImage" />
        <dc:title></dc:title>
      </cc:Work>
    </rdf:RDF>
  </metadata>
  <g
     inkscape:label="Layer 1"
     inkscape:groupmode="layer"
     id="layer1"
     transform="translate(-3.821478,-6.5971271)">
    <g
       id="g1037"
       transform="translate(-75.141708,-115.88766)">
      <g
         style="stroke:#800080"
         transform="matrix(0.26458333,0,0,0.26458333,87.644967,132.59655)"
         id="g901">
        <path
           inkscape:connector-curvature="0"
           d="M 103.96875,29.43727 C 106.08143,18.684552 104.89996,10.523975 99.90625,7.2810201 98.241679,6.2000351 96.24602,5.7270015 94,5.8122701 81.871494,6.2727205 62.301679,22.972344 46.3125,47.59352 27.362362,76.774173 20.627996,106.01897 31.28125,112.93727 c 5.056946,3.28402 13.115147,0.95604 22.21875,-5.53125"
           style="fill:none;stroke:#800080;stroke-width:5;stroke-linecap:round"
           id="path881" />
        <path
           inkscape:connector-curvature="0"
           d="m 113.6875,77.15602 c 8.99437,-3.489189 14.52504,-8.265012 14.8125,-13.75 0.6648,-12.685141 -26.94124,-24.429026 -61.6875,-26.25 -3.257461,-0.170716 -6.460588,-0.260544 -9.59375,-0.25 -30.287234,0.101927 -53.9287749,8.410341 -54.53125,19.90625 -0.286892,5.474225 4.7004836,10.782383 13.25,15.1875"
           style="fill:none;stroke:#800080;stroke-width:5;stroke-linecap:round"
           id="path883" />
        <path
           inkscape:connector-curvature="0"
           d="M 57,10.53102 C 50.846125,5.4251295 45.074552,2.683237 40.4375,3.0310201 39.20289,3.123617 38.061068,3.4278792 37,3.9685201 25.681946,9.7353567 29.297632,39.560643 45.09375,70.56227 c 15.796118,31.00163 37.775696,51.45434 49.09375,45.6875 10.8844,-5.54588 7.94666,-33.337754 -6.34375,-63.03125"
           style="fill:none;stroke:#800080;stroke-width:5;stroke-linecap:round"
           id="path885" />
        <path
           inkscape:connector-curvature="0"
           d="m 73.5,61 a 7.5,7.5 0 0 1 -15,0 7.5,7.5 0 1 1 15,0 z"
           style="fill:#66595c;stroke:#800080"
           id="path887" />
      </g>
      <g
         transform="matrix(0.1080236,0,0,0.1080236,81.88295,125.49097)"
         id="g1017">
        <path
           style="fill:#96ca4b"
           inkscape:connector-curvature="0"
           d="M 198.4,39.7 203,39.3 V 9.2 l -5.4,0.4 C 146.7,13.7 99.4,36.6 64.5,74.3 29.3,112.2 10,161.5 10,213 c 0,51.5 19.3,100.8 54.5,138.6 34.9,37.7 82.2,60.6 133.1,64.7 l 5.4,0.4 v -30.1 l -4.6,-0.4 c -43.1,-3.8 -83,-23.6 -112.5,-55.6 -29.6,-32.2 -46,-74 -46,-117.7 0,-43.7 16.3,-85.5 46,-117.7 29.5,-31.9 69.5,-51.7 112.5,-55.5 z"
           id="path1013" />
        <path
           style="fill:#5f7fbf"
           inkscape:connector-curvature="0"
           d="M 363.5,74.4 C 328.6,36.7 281.3,13.8 230.4,9.7 L 225,9.2 v 30.1 l 4.6,0.4 c 43.1,3.8 83,23.6 112.5,55.6 29.6,32.2 46,74 46,117.7 0,43.7 -16.3,85.5 -46,117.7 -29.5,32 -69.4,51.8 -112.5,55.6 l -4.6,0.4 v 30.1 l 5.4,-0.4 c 50.9,-4.1 98.2,-27 133.1,-64.7 C 398.7,313.8 418,264.5 418,213 418,161.5 398.7,112.2 363.5,74.4 Z"
           id="path1015" />
      </g>
    </g>
  </g>
</svg>
